<svg width="42" height="60" viewBox="0 0 42 60" fill="none" xmlns="http://www.w3.org/2000/svg">
<path d="M21.0127 4.6155e-06C17.1261 -0.00258297 13.3151 1.08289 10.0038 3.13557C6.69261 5.18825 4.01112 8.1276 2.2579 11.6264C0.504674 15.1252 -0.251489 19.0461 0.0735907 22.9527C0.39867 26.8593 1.79223 30.5982 4.09914 33.7533L20.9867 60L37.9263 33.7533C40.2232 30.5957 41.6084 26.8583 41.9285 22.9553C42.2485 19.0522 41.4908 15.136 39.7393 11.6408C37.9879 8.14551 35.3111 5.20772 32.0057 3.15302C28.7003 1.09833 24.8954 0.00700174 21.0127 4.6155e-06Z" fill="white"/>
<path d="M5.32625 33.3605L5.31831 33.3479L5.30964 33.3359C3.16621 30.3605 1.87064 26.8332 1.56841 23.1468C1.26618 19.4603 1.96929 15.7607 3.59872 12.4602C5.22811 9.15975 7.71937 6.38869 10.7937 4.45425C13.8679 2.51993 17.4051 1.49762 21.0115 1.5C24.6144 1.50665 28.1459 2.53451 31.2148 4.47079C34.2839 6.40719 36.7708 9.17688 38.3986 12.4741C40.0265 15.7714 40.731 19.4666 40.4335 23.1498C40.136 26.8331 38.8481 30.359 36.7138 33.3369L36.7058 33.3482L36.6983 33.3599L20.988 58.0671L5.32625 33.3605Z" fill="#F75A45" stroke="#C94921"/>
</svg>
